<?xml version="1.0" encoding="UTF-8"?><svg id="Layer_1" xmlns="http://www.w3.org/2000/svg" viewBox="0 0 415.14 342.68"><defs><style>.cls-1{fill:#ff2800;}</style></defs><path class="cls-1" d="M399.03,228.07c8.52-3.32,11.15-10.95,13.17-18.08,2.41-8.51,3.74-17.48,2.43-26.23-.47-3.11-1.27-6.16-2.15-9.17-.46-1.58-.95-3.16-1.45-4.73-2.34-7.28-5.08-14.42-7.82-21.56-1.22-3.19-2.45-6.38-4.02-9.42-4.62-8.93-15.48-12.3-24.84-12.8-3.44-.19-6.92-.34-10.4-.34-9.49,0-18.97,1.18-27.39,6.23-2.95,1.77-5.28,4.41-6.75,7.52-1.27,2.67-1.76,4.45-1.6,7.45.01.24-.03,3.43,1.1,4.29,1.26.96,2.96.44,2.96.44.21-.06.42-.14.61-.22,4.09-1.73,5.11-2.14,9.39-3.87,9.09-3.67,11.85-4.24,20.48-5.3,1.17-.14,3.09-.27,4.27-.28l5.22-.04c2.04-.02,3.86,1.46,4.1,3.49.17,1.44-.34,2.62-.34,2.62-.16.52-.68.98-1.14,1.23-.35.19-1.49.52-1.88.59l-9.28,1.56s-11.57,2.24-11.72,2.27c-4.51.87-8.88,2.55-12.9,4.74-1.91,1.04-3.8,2.18-5.41,3.62-1.59,1.42-3.06,2.4-3.73,4.51-.56,1.73-.97,3.62-.77,5.44.25,2.25,1.98,3.77,3.94,4.74.78.39,1.56.54,2.32.54,1.98,0,3.9-1.04,5.78-1.79l11.05-4.33s0,0,0,0l13.16-3.71s0,0,0,0l4.54-.77c.97-.17,2,0,2.8.56,2.23,1.6,1.48,4.67,1.48,4.67-.28,1.17-1.6,1.58-2.53,1.9l-3.72.76s0,0,0,0l-15.78,4.89s0,0,0,0l-11.58,4.31s0,0,0,0c-4.43,2.08-11.35,4.31-9.5,10.65.28.96.82,1.83,1.55,2.52,3.16,2.96,5.7,3.77,8.1,3.77,1.66,0,3.25-.39,4.93-.72,0,0,0,0,.01,0l8.68-2.87,7.86-2.92c1.3-.44,2.75-.77,3.62-.8.23,0,.45,0,.68.03l.81.13c4.28.83,2.92,4.36,2.92,4.36-.3,1.27-1.02,2.04-1.95,2.86-.73.64-1.71,1.03-2.45,1.4,0,0,0,0-.01,0-6.17,2.17-13.08,3.74-18.96,6.59-2.19,1.06-7.06,3.62-4.85,6.89.42.62,1.1.99,1.78,1.3,6.64,3.01,14.7,1.86,21.12,5.32,1.88,1.01,3.53,2.38,5.36,3.48,5.97,3.6,13.18,4.09,20.23,4.09,0,0,0,0,0,0,.07,0,3.81,0,8.51-1.83Z"/><path class="cls-1" d="M16.12,228.07c-8.52-3.32-11.15-10.95-13.17-18.08-2.41-8.51-3.74-17.48-2.43-26.23.47-3.11,1.27-6.16,2.15-9.17.46-1.58.95-3.16,1.45-4.73,2.34-7.28,5.08-14.42,7.82-21.56,1.22-3.19,2.45-6.38,4.02-9.42,4.62-8.93,15.48-12.3,24.84-12.8,3.44-.19,6.92-.34,10.4-.34,9.49,0,18.97,1.18,27.39,6.23,2.95,1.77,5.28,4.41,6.75,7.52,1.27,2.67,1.76,4.45,1.6,7.45-.01.24.03,3.43-1.1,4.29-1.26.96-2.96.44-2.96.44-.21-.06-.42-.14-.61-.22-4.09-1.73-5.11-2.14-9.39-3.87-9.09-3.67-11.85-4.24-20.48-5.3-1.17-.14-3.09-.27-4.27-.28l-5.22-.04c-2.04-.02-3.86,1.46-4.1,3.49-.17,1.44.34,2.62.34,2.62.16.52.68.98,1.14,1.23.35.19,1.49.52,1.88.59l9.28,1.56s11.57,2.24,11.72,2.27c4.51.87,8.88,2.55,12.9,4.74,1.91,1.04,3.8,2.18,5.41,3.62,1.59,1.42,3.06,2.4,3.73,4.51.56,1.73.97,3.62.77,5.44-.25,2.25-1.98,3.77-3.94,4.74-.78.39-1.56.54-2.32.54-1.98,0-3.9-1.04-5.78-1.79l-11.05-4.33s0,0,0,0l-13.16-3.71s0,0,0,0l-4.54-.77c-.97-.17-2,0-2.8.56-2.23,1.6-1.48,4.67-1.48,4.67.28,1.17,1.6,1.58,2.53,1.9l3.72.76s0,0,0,0l15.78,4.89s0,0,0,0l11.58,4.31s0,0,0,0c4.43,2.08,11.35,4.31,9.5,10.65-.28.96-.82,1.83-1.55,2.52-3.16,2.96-5.7,3.77-8.1,3.77-1.66,0-3.25-.39-4.93-.72,0,0,0,0-.01,0l-8.68-2.87-7.86-2.92c-1.3-.44-2.75-.77-3.62-.8-.23,0-.45,0-.68.03l-.81.13c-4.28.83-2.92,4.36-2.92,4.36.3,1.27,1.02,2.04,1.95,2.86.73.64,1.71,1.03,2.45,1.4,0,0,0,0,.01,0,6.17,2.17,13.08,3.74,18.96,6.59,2.19,1.06,7.06,3.62,4.85,6.89-.42.62-1.1.99-1.78,1.3-6.64,3.01-14.7,1.86-21.12,5.32-1.88,1.01-3.53,2.38-5.36,3.48-5.97,3.6-13.18,4.09-20.23,4.09,0,0,0,0,0,0-.07,0-3.81,0-8.51-1.83Z"/><path class="cls-1" d="M362.17,229.1c-.54-.32-1.08-.63-1.63-.89-1.44-.66-3.03-.96-4.64-1.16-2.03-.25-4.1-.36-6.17-.66-1.95-.28-3.87-.74-5.73-1.37-.91-.31-1.81-.65-2.7-1.04-.39-.17-.8-.42-1.2-.64-.23-.12-.45-.22-.65-.3-.45,1.15-.9,2.29-1.38,3.42-10.74,25.41-28.73,47.07-51.35,62.35-22.63,15.28-49.81,24.18-79.2,24.19-19.6,0-38.2-3.96-55.14-11.13-25.41-10.74-47.07-28.73-62.35-51.35-5.82-8.62-10.69-17.91-14.52-27.72-1.93,1.09-3.99,1.95-6.13,2.53-3.38.92-6.87,1.16-10.27,1.68-1.35.21-2.69.47-3.94.94-1.96.74-3.68,2.01-5.4,3.28-.73.54-1.47,1.04-2.22,1.53.67,1.76,1.36,3.51,2.1,5.25,13.02,30.77,34.72,56.9,62.06,75.37,27.32,18.47,60.36,29.27,95.78,29.27h.03c23.63,0,46.19-4.8,66.7-13.47,30.77-13.02,56.9-34.72,75.37-62.06,7.24-10.72,13.27-22.33,17.97-34.6-1.76-1.2-3.55-2.36-5.38-3.45Z"/><path class="cls-1" d="M362.29,118.38c2.55,0,5.32.11,8.31.35-1.54-4.79-3.28-9.49-5.22-14.09-13.02-30.77-34.72-56.9-62.06-75.37C276,10.8,242.97,0,207.54,0h-.03c-23.63,0-46.19,4.8-66.7,13.47-30.77,13.02-56.9,34.72-75.37,62.06-8.96,13.26-16.1,27.88-21.1,43.45,1.5-.16,4.31-.41,7.94-.41,6.04,0,14.3.68,22.35,3.51.73-1.98,1.5-3.95,2.32-5.89,10.74-25.41,28.73-47.07,51.35-62.35,22.63-15.28,49.81-24.18,79.2-24.19,19.6,0,38.2,3.96,55.14,11.13,25.41,10.74,47.07,28.73,62.35,51.35,6.24,9.24,11.39,19.26,15.33,29.87,4.02-1.68,11.03-3.62,21.95-3.62Z"/><path class="cls-1" d="M282.83,135.81c-4.22-10.31-10.63-19.15-19.13-26.26h-.02s0,0,.01,0c-7.47-6.31-16.19-11.08-26-14.32-8.72-2.88-18.32-4.55-28.72-5.09l-.52-.03-6.99-.18h-59.1v119.31h27.76l25.65-89.38h4.3c9.64,0,17.84,1.15,24.66,3.31,6.82,2.16,12.26,5.3,16.53,9.36,4.28,4.07,7.53,9.14,9.78,15.52,2.24,6.37,3.43,14.04,3.43,23.11,0,8.21-.98,15.5-2.85,21.9-1.5,4.94-3.59,9.1-6.28,12.62-2.69,3.53-5.99,6.44-10.05,8.86-7.73,4.6-18.43,7.26-32.27,7.46h-10.05v-.03h-34.11v.03h-16.51v29.84h60.17l6.15-.15h.29c10.62-.47,20.38-2.09,29.22-4.94,9.93-3.2,18.71-7.97,26.17-14.34h0c8.29-7.09,14.54-15.92,18.64-26.21,4.11-10.29,6.11-22.02,6.11-35.02v-.27c0-13.02-2.06-24.78-6.29-35.09Z"/></svg>